<svg width="800" height="480" viewBox="0 0 800 480" fill="none" xmlns="http://www.w3.org/2000/svg">
  <rect width="800" height="480" rx="32" fill="#020617"/>
  <rect x="56" y="64" width="688" height="352" rx="24" fill="#020617" stroke="#1f2937" stroke-width="2"/>
  <rect x="96" y="104" width="160" height="80" rx="16" fill="#020617" stroke="#1f2937" stroke-width="2"/>
  <rect x="96" y="216" width="160" height="80" rx="16" fill="#020617" stroke="#1f2937" stroke-width="2"/>
  <rect x="96" y="328" width="160" height="56" rx="16" fill="#020617" stroke="#1f2937" stroke-width="2"/>
  <rect x="332" y="160" width="152" height="80" rx="16" fill="#020617" stroke="#1f2937" stroke-width="2"/>
  <rect x="332" y="272" width="152" height="80" rx="16" fill="#020617" stroke="#1f2937" stroke-width="2"/>
  <rect x="560" y="192" width="144" height="96" rx="16" fill="#020617" stroke="#1f2937" stroke-width="2"/>
  <rect x="112" y="124" width="120" height="10" rx="5" fill="#0f172a"/>
  <rect x="112" y="144" width="80" height="8" rx="4" fill="#0f172a"/>
  <rect x="112" y="236" width="96" height="10" rx="5" fill="#0f172a"/>
  <rect x="112" y="256" width="72" height="8" rx="4" fill="#0f172a"/>
  <rect x="112" y="344" width="96" height="8" rx="4" fill="#0f172a"/>
  <rect x="348" y="180" width="120" height="10" rx="5" fill="#0f172a"/>
  <rect x="348" y="200" width="96" height="8" rx="4" fill="#0f172a"/>
  <rect x="348" y="292" width="120" height="10" rx="5" fill="#0f172a"/>
  <rect x="348" y="312" width="96" height="8" rx="4" fill="#0f172a"/>
  <rect x="576" y="212" width="112" height="10" rx="5" fill="#0f172a"/>
  <rect x="576" y="232" width="88" height="8" rx="4" fill="#0f172a"/>
  <rect x="576" y="252" width="64" height="8" rx="4" fill="#0f172a"/>
  <path d="M256 144H332" stroke="#38bdf8" stroke-width="2" stroke-linecap="round"/>
  <path d="M256 256H332" stroke="#38bdf8" stroke-width="2" stroke-linecap="round"/>
  <path d="M256 352H332" stroke="#38bdf8" stroke-width="2" stroke-linecap="round"/>
  <path d="M484 200H560" stroke="#38bdf8" stroke-width="2" stroke-linecap="round"/>
  <path d="M484 312H560" stroke="#38bdf8" stroke-width="2" stroke-linecap="round"/>
  <circle cx="294" cy="144" r="6" fill="#38bdf8"/>
  <circle cx="294" cy="256" r="6" fill="#38bdf8"/>
  <circle cx="294" cy="352" r="6" fill="#38bdf8"/>
  <circle cx="518" cy="200" r="6" fill="#38bdf8"/>
  <circle cx="518" cy="312" r="6" fill="#38bdf8"/>
  <rect x="96" y="80" width="96" height="8" rx="4" fill="#0f172a"/>
  <rect x="640" y="80" width="72" height="8" rx="4" fill="#0f172a"/>
</svg>

