<svg width="800" height="480" viewBox="0 0 800 480" fill="none" xmlns="http://www.w3.org/2000/svg">
  <rect width="800" height="480" rx="32" fill="#020617"/>
  <rect x="56" y="64" width="688" height="352" rx="24" fill="#020617" stroke="#1f2937" stroke-width="2"/>
  <rect x="88" y="96" width="200" height="16" rx="8" fill="#020617" stroke="#1f2937" stroke-width="2"/>
  <rect x="312" y="96" width="144" height="16" rx="8" fill="#020617" stroke="#1f2937" stroke-width="2"/>
  <rect x="480" y="96" width="152" height="16" rx="8" fill="#020617" stroke="#1f2937" stroke-width="2"/>
  <rect x="88" y="136" width="272" height="240" rx="12" fill="#020617" stroke="#1f2937" stroke-width="2"/>
  <rect x="384" y="136" width="288" height="112" rx="12" fill="#020617" stroke="#1f2937" stroke-width="2"/>
  <rect x="384" y="272" width="288" height="104" rx="12" fill="#020617" stroke="#1f2937" stroke-width="2"/>
  <rect x="104" y="152" width="240" height="208" rx="8" fill="#020617"/>
  <path d="M120 344L120 192" stroke="#0f172a" stroke-width="2" stroke-linecap="round"/>
  <path d="M120 344H328" stroke="#0f172a" stroke-width="2" stroke-linecap="round"/>
  <rect x="132" y="248" width="28" height="96" rx="4" fill="#38bdf8"/>
  <rect x="176" y="232" width="28" height="112" rx="4" fill="#0ea5e9"/>
  <rect x="220" y="216" width="28" height="128" rx="4" fill="#22c55e"/>
  <rect x="264" y="200" width="28" height="144" rx="4" fill="#a855f7"/>
  <rect x="308" y="224" width="28" height="120" rx="4" fill="#f97316"/>
  <rect x="400" y="152" width="80" height="10" rx="5" fill="#0f172a"/>
  <rect x="400" y="172" width="112" height="8" rx="4" fill="#0f172a"/>
  <rect x="400" y="192" width="88" height="8" rx="4" fill="#0f172a"/>
  <rect x="400" y="212" width="64" height="8" rx="4" fill="#0f172a"/>
  <rect x="400" y="288" width="112" height="10" rx="5" fill="#0f172a"/>
  <rect x="400" y="308" width="96" height="8" rx="4" fill="#0f172a"/>
  <rect x="400" y="328" width="80" height="8" rx="4" fill="#0f172a"/>
  <rect x="528" y="288" width="120" height="10" rx="5" fill="#0f172a"/>
  <rect x="528" y="308" width="96" height="8" rx="4" fill="#0f172a"/>
  <rect x="528" y="328" width="72" height="8" rx="4" fill="#0f172a"/>
  <circle cx="616" cy="184" r="20" stroke="#38bdf8" stroke-width="2"/>
  <path d="M616 172V184L624 192" stroke="#38bdf8" stroke-width="2" stroke-linecap="round" stroke-linejoin="round"/>
  <rect x="656" y="80" width="56" height="8" rx="4" fill="#0f172a"/>
</svg>

